<mxfile host="app.diagrams.net" modified="2024-09-10T09:19:07.568Z" agent="Mozilla/5.0 (Windows NT 10.0; Win64; x64) AppleWebKit/537.36 (KHTML, like Gecko) Chrome/128.0.0.0 Safari/537.36" etag="E7plsKBqczVkuAeGqn4v" version="24.6.4" type="github">
  <diagram id="C5RBs43oDa-KdzZeNtuy" name="Page-1">
    <mxGraphModel dx="1323" dy="687" grid="1" gridSize="10" guides="1" tooltips="1" connect="1" arrows="1" fold="1" page="1" pageScale="1" pageWidth="827" pageHeight="1169" math="0" shadow="0">
      <root>
        <mxCell id="WIyWlLk6GJQsqaUBKTNV-0" />
        <mxCell id="WIyWlLk6GJQsqaUBKTNV-1" parent="WIyWlLk6GJQsqaUBKTNV-0" />
        <mxCell id="WWNECHSc2OCmEOjc6erq-0" value="EMMA" style="shape=umlActor;verticalLabelPosition=bottom;verticalAlign=top;html=1;outlineConnect=0;fontStyle=1" vertex="1" parent="WIyWlLk6GJQsqaUBKTNV-1">
          <mxGeometry x="50" y="300" width="70" height="140" as="geometry" />
        </mxCell>
        <mxCell id="WWNECHSc2OCmEOjc6erq-2" value="" style="rounded=0;whiteSpace=wrap;html=1;" vertex="1" parent="WIyWlLk6GJQsqaUBKTNV-1">
          <mxGeometry x="250" y="120" width="190" height="550" as="geometry" />
        </mxCell>
        <mxCell id="WWNECHSc2OCmEOjc6erq-11" style="edgeStyle=orthogonalEdgeStyle;rounded=0;orthogonalLoop=1;jettySize=auto;html=1;exitX=0.5;exitY=1;exitDx=0;exitDy=0;entryX=0.5;entryY=0;entryDx=0;entryDy=0;" edge="1" parent="WIyWlLk6GJQsqaUBKTNV-1" source="WWNECHSc2OCmEOjc6erq-3" target="WWNECHSc2OCmEOjc6erq-4">
          <mxGeometry relative="1" as="geometry" />
        </mxCell>
        <mxCell id="WWNECHSc2OCmEOjc6erq-3" value="Enter Ingredients" style="ellipse;whiteSpace=wrap;html=1;" vertex="1" parent="WIyWlLk6GJQsqaUBKTNV-1">
          <mxGeometry x="250" y="120" width="190" height="80" as="geometry" />
        </mxCell>
        <mxCell id="WWNECHSc2OCmEOjc6erq-14" value="" style="edgeStyle=orthogonalEdgeStyle;rounded=0;orthogonalLoop=1;jettySize=auto;html=1;" edge="1" parent="WIyWlLk6GJQsqaUBKTNV-1" source="WWNECHSc2OCmEOjc6erq-4" target="WWNECHSc2OCmEOjc6erq-5">
          <mxGeometry relative="1" as="geometry">
            <Array as="points">
              <mxPoint x="345" y="330" />
              <mxPoint x="345" y="330" />
            </Array>
          </mxGeometry>
        </mxCell>
        <mxCell id="WWNECHSc2OCmEOjc6erq-4" value="View Recipe Suggestions" style="ellipse;whiteSpace=wrap;html=1;" vertex="1" parent="WIyWlLk6GJQsqaUBKTNV-1">
          <mxGeometry x="250" y="225" width="190" height="75" as="geometry" />
        </mxCell>
        <mxCell id="WWNECHSc2OCmEOjc6erq-5" value="Follow Step by Step Instructions" style="ellipse;whiteSpace=wrap;html=1;" vertex="1" parent="WIyWlLk6GJQsqaUBKTNV-1">
          <mxGeometry x="260" y="330" width="180" height="80" as="geometry" />
        </mxCell>
        <mxCell id="WWNECHSc2OCmEOjc6erq-15" value="" style="edgeStyle=orthogonalEdgeStyle;rounded=0;orthogonalLoop=1;jettySize=auto;html=1;" edge="1" parent="WIyWlLk6GJQsqaUBKTNV-1" source="WWNECHSc2OCmEOjc6erq-6" target="WWNECHSc2OCmEOjc6erq-7">
          <mxGeometry relative="1" as="geometry" />
        </mxCell>
        <mxCell id="WWNECHSc2OCmEOjc6erq-6" value="Mark as favorite&amp;nbsp;" style="ellipse;whiteSpace=wrap;html=1;" vertex="1" parent="WIyWlLk6GJQsqaUBKTNV-1">
          <mxGeometry x="250" y="450" width="190" height="80" as="geometry" />
        </mxCell>
        <mxCell id="WWNECHSc2OCmEOjc6erq-7" value="View Additional Grocery Suggestions" style="ellipse;whiteSpace=wrap;html=1;" vertex="1" parent="WIyWlLk6GJQsqaUBKTNV-1">
          <mxGeometry x="250" y="560" width="190" height="80" as="geometry" />
        </mxCell>
        <mxCell id="WWNECHSc2OCmEOjc6erq-8" value="" style="curved=1;endArrow=classic;html=1;rounded=0;entryX=-0.017;entryY=0.417;entryDx=0;entryDy=0;entryPerimeter=0;" edge="1" parent="WIyWlLk6GJQsqaUBKTNV-1" target="WWNECHSc2OCmEOjc6erq-2">
          <mxGeometry width="50" height="50" relative="1" as="geometry">
            <mxPoint x="120" y="390" as="sourcePoint" />
            <mxPoint x="170" y="340" as="targetPoint" />
            <Array as="points">
              <mxPoint x="170" y="390" />
              <mxPoint x="120" y="340" />
            </Array>
          </mxGeometry>
        </mxCell>
        <mxCell id="WWNECHSc2OCmEOjc6erq-13" style="edgeStyle=orthogonalEdgeStyle;rounded=0;orthogonalLoop=1;jettySize=auto;html=1;entryX=0.526;entryY=0.6;entryDx=0;entryDy=0;entryPerimeter=0;" edge="1" parent="WIyWlLk6GJQsqaUBKTNV-1" source="WWNECHSc2OCmEOjc6erq-5" target="WWNECHSc2OCmEOjc6erq-2">
          <mxGeometry relative="1" as="geometry" />
        </mxCell>
      </root>
    </mxGraphModel>
  </diagram>
</mxfile>
